<svg width="201" height="40" viewBox="0 0 201 40" fill="none" xmlns="http://www.w3.org/2000/svg">
<g clip-path="url(#clip0_3537_1481)">
<path d="M5.29375 25.175C1.2925 25.175 0.04125 24.0888 0 21.9025H2.2825C2.365 22.9613 3.03875 23.58 5.3075 23.58C7.52125 23.58 8.25 23.0713 8.25 22.2738C8.25 21.435 7.755 21.16 5.07375 20.9125C1.11375 20.555 0.1925 19.7713 0.1925 17.97C0.1925 16.1138 1.71875 15 4.88125 15C8.34625 15 9.9275 15.9075 9.99625 18.0113H7.65875C7.57625 17.0625 6.8475 16.65 4.93625 16.65C3.135 16.65 2.365 16.9938 2.365 17.7638C2.365 18.5338 2.86 18.8225 5.61 19.0975C9.39125 19.4688 10.4775 20.115 10.4775 22.0538C10.4775 24.075 8.75875 25.175 5.29375 25.175Z" fill="white"/>
<path d="M21.3858 21.1875H23.7645C23.7233 23.8138 21.6058 25.175 18.0858 25.175C14.1945 25.175 12.0495 23.4013 12.0495 19.9638C12.0495 16.9112 14.1533 15 17.962 15C22.032 15 23.5995 16.54 23.6683 18.9325H21.2895C21.2208 17.4613 20.0658 16.7738 18.0583 16.7738C15.6795 16.7738 14.5108 17.8325 14.5108 19.9775C14.5108 22.3013 15.707 23.36 18.1408 23.36C20.0245 23.36 21.3583 22.645 21.3858 21.1875Z" fill="white"/>
<path d="M36.1978 15.1513V20.94C36.1978 23.8688 34.6991 25.1613 30.8903 25.1613C27.2328 25.1613 25.6516 23.91 25.6516 21.0225V15.1513H27.9891V20.8163C27.9891 22.5625 28.7041 23.3738 30.9041 23.3738C33.1316 23.3738 33.8603 22.59 33.8603 20.7063V15.1513H36.1978Z" fill="white"/>
<path d="M43.8952 15.1513C47.7314 15.1513 49.4777 17.0075 49.4777 19.9775C49.4777 23.085 47.7589 25.01 44.0739 25.01H38.6564V15.1513H43.8952ZM40.9939 23.2638H43.7989C46.1364 23.2638 47.0439 22.1638 47.0439 20.0325C47.0439 17.9975 46.1502 16.9112 43.4964 16.9112H40.9939V23.2638Z" fill="white"/>
<path d="M60.9006 15.1513V16.7738H53.9293V19.2075H59.2506V20.7888H53.9293V23.3875H60.9006V25.01H51.5918V15.1513H60.9006Z" fill="white"/>
<path d="M71.0975 20.2388V20.3763C72.3625 20.5275 73.0362 21.2425 73.0362 22.2738V25.01H70.7537V22.2188C70.7537 21.3113 69.8875 21.0088 69.1587 21.0088H65.24V25.01H62.9025V15.1513H69.6262C72.1837 15.1513 73.2425 16.1963 73.2425 17.7775C73.2425 19.345 72.2937 20.005 71.0975 20.2388ZM65.24 19.4275H69.255C70.3825 19.4275 70.9875 18.9875 70.9875 18.025C70.9875 17.2413 70.465 16.76 69.31 16.76H65.24V19.4275Z" fill="white"/>
<path d="M77.7054 15.1513V25.01H75.3679V15.1513H77.7054Z" fill="white"/>
<path d="M86.9839 15.1513L91.9889 24.5288V25.01H89.7064L88.6614 22.9475H82.3226L81.2776 25.01H79.0914V24.5288L84.1239 15.1513H86.9839ZM85.4852 16.705L83.1751 21.2838H87.8089L85.4852 16.705Z" fill="white"/>
<path d="M105.969 15.1513V16.7738H99.1631V19.84H104.361V21.4488H99.1631V25.01H96.8256V15.1513H105.969Z" fill="white"/>
<path d="M117.015 15.1513V16.7738H110.044V19.2075H115.365V20.7888H110.044V23.3875H117.015V25.01H107.707V15.1513H117.015Z" fill="white"/>
<path d="M127.212 20.2388V20.3763C128.477 20.5275 129.151 21.2425 129.151 22.2738V25.01H126.868V22.2188C126.868 21.3113 126.002 21.0088 125.273 21.0088H121.355V25.01H119.017V15.1513H125.741C128.298 15.1513 129.357 16.1963 129.357 17.7775C129.357 19.345 128.408 20.005 127.212 20.2388ZM121.355 19.4275H125.37C126.497 19.4275 127.102 18.9875 127.102 18.025C127.102 17.2413 126.58 16.76 125.425 16.76H121.355V19.4275Z" fill="white"/>
<path d="M139.678 20.2388V20.3763C140.943 20.5275 141.616 21.2425 141.616 22.2738V25.01H139.334V22.2188C139.334 21.3113 138.468 21.0088 137.739 21.0088H133.82V25.01H131.483V15.1513H138.206C140.764 15.1513 141.823 16.1963 141.823 17.7775C141.823 19.345 140.874 20.005 139.678 20.2388ZM133.82 19.4275H137.835C138.963 19.4275 139.568 18.9875 139.568 18.025C139.568 17.2413 139.045 16.76 137.89 16.76H133.82V19.4275Z" fill="white"/>
<path d="M150.658 15.1513L155.663 24.5288V25.01H153.381L152.336 22.9475H145.997L144.952 25.01H142.766V24.5288L147.798 15.1513H150.658ZM149.16 16.705L146.85 21.2838H151.483L149.16 16.705Z" fill="white"/>
<path d="M165.28 20.2388V20.3763C166.545 20.5275 167.219 21.2425 167.219 22.2738V25.01H164.936V22.2188C164.936 21.3113 164.07 21.0088 163.341 21.0088H159.422V25.01H157.085V15.1513H163.809C166.366 15.1513 167.425 16.1963 167.425 17.7775C167.425 19.345 166.476 20.005 165.28 20.2388ZM159.422 19.4275H163.437C164.565 19.4275 165.17 18.9875 165.17 18.025C165.17 17.2413 164.647 16.76 163.492 16.76H159.422V19.4275Z" fill="white"/>
<path d="M171.888 15.1513V25.01H169.55V15.1513H171.888Z" fill="white"/>
<path d="M188.875 15.1513V25.01H186.537V20.8438H180.638V25.01H178.301V15.1513H180.638V19.125H186.537V15.1513H188.875Z" fill="white"/>
<path d="M197.969 15.1513C200.499 15.1513 201.557 16.3063 201.557 18.1488C201.557 19.9088 200.499 21.2425 197.941 21.2425H193.789V25.01H191.451V15.1513H197.969ZM193.789 19.6063H197.584C198.711 19.6063 199.33 19.1663 199.33 18.1763C199.33 17.3375 198.794 16.8562 197.639 16.8562H193.789V19.6063Z" fill="white"/>
</g>
<defs>
<clipPath id="clip0_3537_1481">
<rect width="201" height="40" fill="white"/>
</clipPath>
</defs>
</svg>
